<?xml version="1.0" encoding="utf-8"?>
<!-- Generator: Adobe Illustrator 25.4.1, SVG Export Plug-In . SVG Version: 6.00 Build 0)  -->
<svg version="1.1" id="Layer_1" xmlns="http://www.w3.org/2000/svg" xmlns:xlink="http://www.w3.org/1999/xlink" x="0px" y="0px"
	 viewBox="0 0 99.68 106.51" style="enable-background:new 0 0 99.68 106.51;" xml:space="preserve">
<style type="text/css">
	.st0{fill:#2DA7DF;}
</style>
<g>
	<g>
		<path class="st0" d="M51.82,64.92H5.63C2.52,64.92,0,62.4,0,59.29V47.22c0-3.11,2.52-5.63,5.63-5.63h46.18
			c3.11,0,5.63,2.52,5.63,5.63v12.07C57.45,62.4,54.93,64.92,51.82,64.92z"/>
		<path class="st0" d="M94.05,23.33H5.63C2.52,23.33,0,20.81,0,17.7V5.63C0,2.52,2.52,0,5.63,0h88.41c3.11,0,5.63,2.52,5.63,5.63
			V17.7C99.68,20.81,97.16,23.33,94.05,23.33z"/>
		<path class="st0" d="M94.05,106.51H5.63c-3.11,0-5.63-2.52-5.63-5.63V88.81c0-3.11,2.52-5.63,5.63-5.63h88.41
			c3.11,0,5.63,2.52,5.63,5.63v12.07C99.68,103.99,97.16,106.51,94.05,106.51z"/>
		<circle class="st0" cx="87.1" cy="53.25" r="12.58"/>
	</g>
</g>
</svg>
